<?xml version="1.0" encoding="utf-8"?>
<!-- Generator: Adobe Illustrator 28.2.0, SVG Export Plug-In . SVG Version: 6.00 Build 0)  -->
<svg version="1.1" id="Calque_2_00000000914214237206566310000002639053198101288837_"
	 xmlns="http://www.w3.org/2000/svg" xmlns:xlink="http://www.w3.org/1999/xlink" x="0px" y="0px" viewBox="0 0 360.6 189"
	 style="enable-background:new 0 0 360.6 189;" xml:space="preserve">
<style type="text/css">
	.st0{fill:#5093FF;}
	.st1{fill:#000F9F;}
</style>
<g>
	<path class="st0" d="M48.7,70.6c-2.1,3.3-5.3,5.7-11.2,5.7h-3.5c-8.1,0-13.2-5.2-13.2-12.5v-21c0-7.4,5.1-12.5,13.2-12.5h3.5
		c5.9,0,9.1,2.4,11.2,5.7c0.6,0.8,1,1.7,1.4,2.6c0,0.2-0.2,0.4-0.4,0.5L44,42c-0.2,0.2-0.5,0.3-0.9,0.4c-0.2,0-0.4-0.2-0.6-0.5
		c-1.3-3-3.1-4.2-5-4.2h-3.5c-2.8,0-5,2.3-5.1,5.1v21c0,2.8,2.3,5.1,5.1,5.1h3.5c1.9,0,3.8-1.1,5-4.2c0.1-0.4,0.4-0.5,0.6-0.5
		c0.3,0.1,0.6,0.2,0.8,0.4l5.7,2.9c0.3,0.2,0.4,0.3,0.4,0.5C49.7,68.9,49.3,69.8,48.7,70.6z"/>
	<path class="st0" d="M80.1,61.4H63.3c-0.5,0-0.7,0.2-0.7,0.7v1.6c0,2.8,2.2,5.1,5,5.1h0c1.8,0,3.8-1.1,5-4.2
		c0.1-0.2,0.3-0.4,0.6-0.4c0.4,0.1,0.8,0.3,1.2,0.5l5.3,2.6c0.2,0.1,0.4,0.3,0.4,0.6c-0.2,0.8-0.6,1.5-1.1,2.1
		c-2.2,3.7-5.3,6.2-11.5,6.2c-8.1,0-13.3-5.1-13.3-12.5V55c0.4-7.3,6.6-12.9,13.9-12.5C75,42.8,80.4,48.2,80.8,55v5.7
		C80.8,61.2,80.6,61.4,80.1,61.4L80.1,61.4L80.1,61.4z M67.7,49.9c-2.4,0-4.5,1.7-5,4.1c0,0.3,0.3,0.6,0.8,0.6h8.4
		c0.5,0,0.8-0.3,0.8-0.6C72.2,51.6,70.1,49.9,67.7,49.9z"/>
	<path class="st0" d="M112.9,75.6h-6.7c-0.5,0-0.7-0.2-0.7-0.7V55.6c0-2.7-2.2-5-4.9-5h-0.1c-2.8,0-5,2.2-5.1,4.9v19.3
		c0,0.5-0.2,0.7-0.7,0.7H88c-0.5,0-0.7-0.2-0.7-0.7v-31c0-0.5,0.2-0.7,0.7-0.7h6c0.5,0,0.7,0.1,0.7,0.6c0,0.5,0.2,0.8,0.6,0.8
		s0.3-0.1,0.5-0.1c1.4-0.8,3-1.2,4.7-1.3c8,0,13.1,5.1,13.1,12.4v19.2C113.5,75.4,113.3,75.6,112.9,75.6z"/>
	<path class="st0" d="M137.3,76.3c-2.1-0.1-4.1-0.5-6-1.3c-4.6-1.7-7.6-6.3-7.4-11.2V51.3c0-0.5-0.2-0.7-0.7-0.7h-3.7
		c-0.5,0-0.7-0.2-0.7-0.6s0.1-1.9,0.2-3.8l8.1-8.6c0.2-0.2,0.5-0.4,0.9-0.4h3.3c0.5,0,0.7,0.2,0.7,0.7v4.7c0,0.5,0.2,0.7,0.7,0.7
		h4.7c0.5,0,0.7,0.2,0.7,0.7v6c0,0.5-0.2,0.7-0.7,0.7h-4.7c-0.5,0-0.7,0.2-0.7,0.7v12.4c0,2.5,1.8,4.7,5.4,5c0.4,0,0.6,0.3,0.6,0.7
		v6.1c0,0.3-0.2,0.7-0.6,0.7L137.3,76.3L137.3,76.3z"/>
	<path class="st0" d="M160.9,52c-0.8-0.3-1.7-0.6-2.6-0.6c-2.7-0.1-5,2-5.1,4.7v18.7c0,0.5-0.2,0.7-0.7,0.7h-6.7
		c-0.5,0-0.7-0.2-0.7-0.7v-31c0-0.5,0.2-0.7,0.7-0.7h6c0.5,0,0.7,0.1,0.7,0.6v1c0,0.4,0.2,0.7,0.6,0.7c0.2,0,0.4-0.1,0.5-0.2
		c1.5-1.3,3.4-2,5.4-2.1c0.7,0,1.3,0.1,2,0.2c0.3,0.1,0.6,0.4,0.6,0.7v7.1C161.6,51.6,161.3,52,160.9,52L160.9,52L160.9,52z"/>
	<path class="st0" d="M190.7,75.6h-6c-0.5,0-0.7-0.2-0.7-0.6s-0.1-0.9-0.5-0.9c-0.2,0-0.4,0.1-0.6,0.2c-1.3,0.8-2.8,1.2-4.3,1.3
		h-2.7c-5.6,0-10-3.8-10-9.5v-0.3c0-5.8,4.4-9.5,10-9.5h6.8c0.3,0,0.7-0.2,0.7-0.5v-1c-0.1-2.7-2.3-4.9-5-4.8h-0.2
		c-1.7,0-3.5,1.1-5.1,4c-0.1,0.2-0.3,0.4-0.6,0.4c-0.3-0.1-0.6-0.2-0.9-0.3l-5.4-2.8c-0.3-0.1-0.4-0.3-0.4-0.5c0.4-1,0.9-2,1.5-2.8
		c2.2-3.3,5.4-5.4,10.9-5.4c8.1,0,13.2,5.1,13.2,12.5v19.9C191.4,75.4,191.2,75.6,190.7,75.6L190.7,75.6L190.7,75.6z M183.4,63.1
		h-7.5c-1.1,0-1.9,0.9-1.9,2v1.1c-0.1,1.1,0.8,2,1.8,2h2.8c2.3-0.1,4.3-1.7,4.8-4V63.1z"/>
	<path class="st0" d="M206.2,75.6h-6.6c-0.5,0-0.7-0.2-0.7-0.7V31.7c0-0.5,0.2-0.7,0.7-0.7h6.6c0.5,0,0.7,0.2,0.7,0.7v43.1
		C206.9,75.4,206.7,75.6,206.2,75.6L206.2,75.6L206.2,75.6z"/>
	<path class="st0" d="M239,61.4h-16.8c-0.5,0-0.7,0.2-0.7,0.7v1.6c0,2.8,2.2,5.1,5.1,5.1h0c1.8,0,3.8-1.1,5-4.2
		c0.1-0.2,0.3-0.4,0.6-0.4c0.4,0.1,0.8,0.3,1.2,0.5l5.3,2.6c0.2,0.1,0.4,0.3,0.4,0.6c-0.2,0.8-0.6,1.5-1.1,2.1
		c-2.2,3.6-5.3,6.2-11.5,6.2c-8.1,0-13.2-5.2-13.2-12.5V55c0.4-7.3,6.7-12.8,13.9-12.4c6.7,0.4,12,5.7,12.4,12.4v5.7
		C239.7,61.2,239.5,61.4,239,61.4L239,61.4L239,61.4z M226.6,49.9c-2.4,0-4.5,1.7-5,4.1c0,0.3,0.3,0.6,0.8,0.6h8.4
		c0.5,0,0.8-0.3,0.8-0.6C231.1,51.6,229,49.9,226.6,49.9z"/>
	<path class="st0" d="M276.9,71.1l27.3-11.2l-0.2-0.3c-16.5,4.2-38.1-2-39-10.6c-0.2-13.8,9.7-25.6,23.3-27.7l0.1-0.3h-22.2
		c-0.9,0-1.2,0.4-1.2,1.2l0,0v21.5l-18,6.8c-0.8,0.3-0.8,0.6-0.1,1.1l7.9,5.2l0,0l1.1,0.7l0,0l2.8,1.8c3.4,2.2,9.7,5.8,10.8,6.3
		l-0.1,0.2c-1.4-0.5-2.8-0.8-4.2-1.1H265v10.1c0,0.8,0.4,1.2,1.2,1.2h22.2l-0.1-0.3C284.2,75,280.3,73.5,276.9,71.1L276.9,71.1z"/>
	<path class="st0" d="M339,44.5l-17.9-9.8L321,35c-0.6,1.4-1,2.9-1.4,4.4l-0.2-0.1c0.1-1.3,0.6-8.9,0.6-13.2v-3.9
		c0-0.9-0.4-1.2-1.2-1.2h-22.2l0.1,0.3c13.4,2.1,23.3,13.6,23.3,27.2l0,0c0,0,0,3.4-6.8,7.3l0.2,0.3l6.1-2.5
		c-2.1,11.5-11.3,20.3-22.9,22.1l-0.1,0.3h22.2c0.9,0,1.2-0.4,1.2-1.2l0,0V53.4l19-7.8C339.8,45.2,339.8,44.9,339,44.5L339,44.5
		L339,44.5z"/>
	<path class="st1" d="M304,59.6c-16.5,4.2-38.1-2-39-10.6c0-1.8,0.1-3.7,0.5-5.5l-0.5,0.2l-18,6.8c-0.8,0.3-0.8,0.6-0.1,1.1l7.9,5.2
		l0,0l1.1,0.7l0,0l2.8,1.8c3.4,2.2,9.7,5.8,10.8,6.3l-0.1,0.2l6.3,4.9c0,0,0.7,0.7,1.1,0.5l27.3-11.2L304,59.6L304,59.6L304,59.6z"
		/>
	<polygon class="st1" points="316.4,54.9 317.6,54.3 316.4,54.9 	"/>
	<polygon class="st1" points="322.1,52.5 322.5,52.3 322.5,52.3 	"/>
	<polygon class="st1" points="320,53.4 320,53.4 322.1,52.5 	"/>
	<polygon class="st1" points="317.6,54.3 319.5,53.6 319.5,53.6 	"/>
	<path class="st1" d="M322.1,52.5l0.4-0.1l0,0l16.5-6.8c0.8-0.3,0.8-0.6,0.1-1.1l-17.9-9.7l-0.1,0.2c-0.6,1.4-1,2.9-1.4,4.4
		l-0.2-0.1c0,2.3,0.6,3.5,0.6,9.2l0,0c0,0,0,3.4-6.8,7.3l0.2,0.3l2.9-1.2l0,0l1.2-0.5l2-0.8l0,0l0.5-0.2l0,0L322.1,52.5L322.1,52.5
		L322.1,52.5z"/>
	<path class="st1" d="M81.1,121.7h-5.2c-0.4,0-0.5-0.2-0.5-0.6v-5.8c0-4.3,0.5-11.9,0.6-13.2l-0.2-0.1c-0.2,0.4-0.8,3-1.4,4.4
		l-4.5,10.2c-0.1,0.2-0.3,0.3-0.5,0.3h-2.8c-0.2,0-0.4-0.1-0.5-0.3l-4.5-10.2c-0.7-1.4-1.3-3.9-1.4-4.4l-0.2,0.1
		c0.1,1.3,0.6,8.9,0.6,13.2v5.8c0,0.4-0.2,0.6-0.5,0.6h-5.2c-0.4,0-0.5-0.2-0.5-0.6V87.8c0-0.4,0.2-0.6,0.5-0.6h4.6
		c0.2,0,0.4,0.1,0.5,0.3l7.3,17.4c0.2,0.4,0.6,2,0.7,2.5h0.2c0.1-0.4,0.6-2.1,0.8-2.5L76,87.6c0.1-0.2,0.3-0.3,0.5-0.3h4.6
		c0.4,0,0.5,0.2,0.5,0.6v33.4C81.6,121.6,81.5,121.7,81.1,121.7L81.1,121.7L81.1,121.7z"/>
	<path class="st1" d="M107.1,110.8h-13c-0.4,0-0.6,0.2-0.6,0.6v1.3c0,2.1,1.7,3.9,3.9,3.9c1.4,0,2.9-0.9,3.9-3.2
		c0.1-0.2,0.3-0.3,0.4-0.3s0.5,0.2,0.9,0.4l4.1,2c0.2,0.1,0.3,0.3,0.3,0.4c0,0.2-0.4,0.9-0.8,1.6c-1.7,2.8-4.1,4.8-8.9,4.8
		c-6.2,0-10.2-4-10.2-9.7v-6.8c0-4.5,4-9.7,10.2-9.7s10.2,5.2,10.2,9.7v4.4C107.7,110.6,107.5,110.8,107.1,110.8z M106.5,85.6
		l-7.8,7.7c-0.3,0.2-0.6,0.4-0.9,0.4h-3.7c-0.4,0-0.6-0.2-0.6-0.4c0-0.2,0.2-0.4,0.3-0.7l4.9-7.5c0.2-0.3,0.5-0.4,0.8-0.4h6.7
		c0.4,0,0.6,0.2,0.6,0.4C106.8,85.2,106.7,85.4,106.5,85.6C106.5,85.6,106.5,85.6,106.5,85.6z M97.5,101.9c-2.7,0-3.9,2.5-3.9,3.2
		c0,0.3,0.2,0.5,0.6,0.5h6.5c0.4,0,0.6-0.2,0.6-0.5C101.3,104.4,100.2,101.9,97.5,101.9L97.5,101.9z"/>
	<path class="st1" d="M131.8,121.7h-4.6c-0.4,0-0.6-0.1-0.6-0.5s-0.2-0.6-0.4-0.6c-0.1,0-0.2,0.1-0.4,0.1c-1.2,0.6-2.6,1-3.6,1
		c-6.2,0-10.2-4-10.2-9.7v-5.8c0-5.7,4.3-9.6,9.7-9.6c1.1,0,2.5,0.4,3.6,1c0.2,0.1,0.2,0.1,0.4,0.1c0.3,0,0.4-0.2,0.4-0.6v-9.4
		c0-0.4,0.2-0.6,0.6-0.6h5.2c0.4,0,0.6,0.2,0.6,0.6v33.4C132.4,121.6,132.2,121.8,131.8,121.7C131.8,121.8,131.8,121.7,131.8,121.7z
		 M126.1,106.3c0-2.2-1.7-3.9-3.9-3.9s-3.9,1.7-3.9,3.9v5.8c0,2.2,1.7,3.9,3.9,3.9s3.9-1.7,3.9-3.9V106.3z"/>
	<path class="st1" d="M141.6,94c-2,0-3.7-1.7-3.7-3.7s1.7-3.7,3.7-3.7s3.7,1.7,3.7,3.7S143.5,94,141.6,94z M144.1,121.7H139
		c-0.4,0-0.6-0.2-0.6-0.6v-24c0-0.4,0.2-0.6,0.6-0.6h5.2c0.4,0,0.6,0.2,0.6,0.6v24C144.7,121.6,144.5,121.7,144.1,121.7z"/>
	<path class="st1" d="M162.5,122.3c-1,0-3-0.3-4.6-1c-3.8-1.5-5.8-4.7-5.8-8.7V103c0-0.4-0.2-0.6-0.6-0.6h-2.9
		c-0.4,0-0.6-0.2-0.6-0.5s0.1-1.5,0.1-3l6.3-6.7c0.2-0.2,0.4-0.3,0.7-0.3h2.6c0.4,0,0.6,0.2,0.6,0.6v3.6c0,0.4,0.2,0.6,0.6,0.6h3.6
		c0.4,0,0.6,0.2,0.6,0.6v4.7c0,0.4-0.2,0.6-0.6,0.6h-3.6c-0.4,0-0.6,0.2-0.6,0.6v9.6c0,2,1.4,3.7,4.2,3.9c0.3,0,0.5,0.2,0.5,0.6v4.7
		C163,122.1,162.8,122.3,162.5,122.3L162.5,122.3L162.5,122.3z"/>
	<path class="st1" d="M187.2,110.8h-13c-0.4,0-0.6,0.2-0.6,0.6v1.3c0,2.1,1.7,3.9,3.9,3.9c1.4,0,2.9-0.9,3.9-3.2
		c0.1-0.2,0.3-0.3,0.4-0.3s0.5,0.2,0.9,0.4l4.1,2c0.2,0.1,0.3,0.3,0.3,0.4c0,0.2-0.4,0.9-0.8,1.6c-1.7,2.8-4.1,4.8-8.9,4.8
		c-6.2,0-10.2-4-10.2-9.7v-6.8c0-4.5,4-9.7,10.2-9.7s10.2,5.2,10.2,9.7v4.4C187.8,110.6,187.6,110.8,187.2,110.8L187.2,110.8
		L187.2,110.8z M177.6,101.9c-2.7,0-3.9,2.5-3.9,3.2c0,0.3,0.2,0.5,0.6,0.5h6.5c0.4,0,0.6-0.2,0.6-0.5
		C181.4,104.4,180.3,101.9,177.6,101.9L177.6,101.9L177.6,101.9z"/>
	<path class="st1" d="M204.9,103.5c-0.3,0-0.8-0.5-2-0.5c-2.2,0-3.9,1.6-3.9,3.8v14.3c0,0.4-0.2,0.6-0.6,0.6h-5.1
		c-0.4,0-0.6-0.2-0.6-0.6v-24c0-0.4,0.2-0.6,0.6-0.6h4.6c0.4,0,0.6,0.1,0.6,0.5v0.8c0,0.3,0.2,0.6,0.4,0.6s0.3-0.1,0.4-0.2
		c0.6-0.6,2.4-1.6,4.2-1.6c0.6,0,1.1,0.1,1.5,0.2c0.3,0.1,0.4,0.3,0.4,0.6v5.5C205.4,103.3,205.1,103.5,204.9,103.5L204.9,103.5
		L204.9,103.5z"/>
	<path class="st1" d="M220.7,103.5c-0.3,0-0.8-0.5-2-0.5c-2.2,0-3.9,1.6-3.9,3.8v14.3c0,0.4-0.2,0.6-0.6,0.6h-5.1
		c-0.4,0-0.6-0.2-0.6-0.6v-24c0-0.4,0.2-0.6,0.6-0.6h4.6c0.4,0,0.6,0.1,0.6,0.5v0.8c0,0.3,0.2,0.6,0.4,0.6s0.3-0.1,0.4-0.2
		c0.6-0.6,2.4-1.6,4.2-1.6c0.6,0,1.1,0.1,1.5,0.2c0.3,0.1,0.4,0.3,0.4,0.6v5.5C221.2,103.3,221,103.5,220.7,103.5L220.7,103.5
		L220.7,103.5z"/>
	<path class="st1" d="M243,121.7h-4.6c-0.4,0-0.6-0.1-0.6-0.4c0-0.4-0.1-0.7-0.4-0.7c-0.2,0-0.3,0.1-0.5,0.2c-1.2,0.7-2.3,1-3.3,1
		h-2.1c-4.3,0-7.7-3-7.7-7.3v-0.3c0-4.5,3.4-7.3,7.7-7.3h5.2c0.4,0,0.6-0.2,0.6-0.6v-0.7c0-2.1-1.8-3.7-4-3.7c-1.3,0-2.7,0.8-4,3.1
		c-0.1,0.2-0.3,0.3-0.4,0.3c-0.2,0-0.4-0.2-0.7-0.3l-4.2-2.2c-0.2-0.1-0.3-0.2-0.3-0.4c0-0.3,0.6-1.4,1.1-2.2
		c1.8-2.6,4.2-4.2,8.4-4.2c6.2,0,10.2,3.9,10.2,9.6v15.4C243.6,121.6,243.4,121.8,243,121.7L243,121.7L243,121.7z M237.4,112h-5.8
		c-0.8,0-1.5,0.7-1.5,1.5v0.8c0,0.9,0.6,1.6,1.5,1.6h2.1c1.8,0,3.4-1.5,3.7-3.1V112L237.4,112L237.4,112z"/>
	<path class="st1" d="M269.2,121.7H264c-0.4,0-0.5-0.2-0.5-0.6v-14.9c0-2.2-1.7-3.9-3.9-3.9s-3.9,1.7-3.9,3.9v14.9
		c0,0.4-0.2,0.6-0.6,0.6h-5.1c-0.4,0-0.6-0.2-0.6-0.6v-24c0-0.4,0.2-0.6,0.6-0.6h4.6c0.4,0,0.6,0.1,0.6,0.5s0.2,0.6,0.4,0.6
		c0.2,0,0.2-0.1,0.4-0.1c1.1-0.6,2.5-1,3.6-1c6.2,0,10.2,3.9,10.2,9.6v14.9C269.7,121.6,269.5,121.7,269.2,121.7L269.2,121.7z"/>
	<path class="st1" d="M294.6,110.8h-13c-0.4,0-0.5,0.2-0.5,0.6v1.3c0,2.1,1.7,3.9,3.9,3.9c1.4,0,2.9-0.9,3.9-3.2
		c0.1-0.2,0.3-0.3,0.4-0.3s0.5,0.2,0.9,0.4l4.1,2c0.2,0.1,0.3,0.3,0.3,0.4c0,0.2-0.4,0.9-0.8,1.6c-1.7,2.8-4.1,4.8-8.9,4.8
		c-6.2,0-10.2-4-10.2-9.7v-6.8c0-4.5,4-9.7,10.2-9.7s10.2,5.2,10.2,9.7v4.4C295.2,110.6,295,110.8,294.6,110.8z M294,85.6l-7.8,7.7
		c-0.3,0.2-0.5,0.4-0.9,0.4h-3.7c-0.4,0-0.5-0.2-0.5-0.4c0-0.2,0.2-0.4,0.3-0.7l4.9-7.5c0.2-0.3,0.5-0.4,0.8-0.4h6.7
		c0.4,0,0.6,0.2,0.6,0.4C294.4,85.2,294.2,85.4,294,85.6L294,85.6L294,85.6z M285,101.9c-2.7,0-3.9,2.5-3.9,3.2
		c0,0.3,0.2,0.5,0.6,0.5h6.5c0.4,0,0.6-0.2,0.6-0.5C288.8,104.4,287.7,101.9,285,101.9L285,101.9L285,101.9z"/>
	<path class="st1" d="M319.6,110.8h-13c-0.4,0-0.5,0.2-0.5,0.6v1.3c0,2.1,1.7,3.9,3.9,3.9c1.4,0,2.9-0.9,3.9-3.2
		c0.1-0.2,0.3-0.3,0.4-0.3s0.5,0.2,0.9,0.4l4.1,2c0.2,0.1,0.3,0.3,0.3,0.4c0,0.2-0.4,0.9-0.8,1.6c-1.7,2.8-4.1,4.8-8.9,4.8
		c-6.2,0-10.2-4-10.2-9.7v-6.8c0-4.5,4-9.7,10.2-9.7s10.2,5.2,10.2,9.7v4.4C320.2,110.6,320,110.8,319.6,110.8z M310,101.9
		c-2.7,0-3.9,2.5-3.9,3.2c0,0.3,0.2,0.5,0.6,0.5h6.5c0.4,0,0.6-0.2,0.6-0.5C313.8,104.4,312.7,101.9,310,101.9L310,101.9L310,101.9z
		"/>
	<path class="st0" d="M74.1,139.2H61c-0.4,0-0.5,0.2-0.5,0.6v7.3c0,0.4,0.2,0.6,0.5,0.6h10.7c0.4,0,0.5,0.2,0.5,0.6v4.7
		c0,0.4-0.2,0.6-0.5,0.6H61c-0.4,0-0.5,0.2-0.5,0.6v13.6c0,0.4-0.2,0.6-0.5,0.6h-5.2c-0.4,0-0.5-0.2-0.5-0.6V134
		c0-0.4,0.2-0.6,0.5-0.6h19.4c0.4,0,0.6,0.2,0.6,0.6v4.7C74.7,139,74.5,139.2,74.1,139.2L74.1,139.2z"/>
	<path class="st0" d="M87.5,168.6c-6.3,0-10.3-4-10.3-9.7v-6.8c0-5.7,4-9.7,10.3-9.7s10.2,4,10.2,9.7v6.8
		C97.7,164.6,93.7,168.6,87.5,168.6z M91.4,152.1c0-2.2-1.7-4-3.9-4s-4,1.8-4,4v6.8c0,2.1,1.7,4,4,4s3.9-1.8,3.9-4V152.1z"/>
	<path class="st0" d="M122.9,168.1h-5.2c-0.4,0-0.6-0.2-0.6-0.6v-15c0-2.2-1.7-3.9-3.9-3.9s-4,1.7-4,3.9v15c0,0.4-0.2,0.6-0.6,0.6
		h-5.2c-0.4,0-0.6-0.2-0.6-0.6v-24.1c0-0.4,0.2-0.6,0.6-0.6h4.7c0.4,0,0.6,0.1,0.6,0.5s0.2,0.6,0.4,0.6c0.2,0,0.2-0.1,0.4-0.1
		c1.2-0.6,2.5-1,3.6-1c6.2,0,10.2,4,10.2,9.7v15C123.4,167.9,123.2,168.1,122.9,168.1L122.9,168.1z"/>
	<path class="st0" d="M148.4,168.1h-4.7c-0.4,0-0.6-0.1-0.6-0.5s-0.2-0.6-0.4-0.6c-0.1,0-0.2,0.1-0.4,0.1c-1.2,0.6-2.6,1-3.6,1
		c-6.3,0-10.3-4-10.3-9.7v-5.8c0-5.7,4.3-9.7,9.7-9.7c1.1,0,2.5,0.4,3.6,1c0.2,0.1,0.2,0.1,0.4,0.1c0.3,0,0.4-0.2,0.4-0.6V134
		c0-0.4,0.2-0.6,0.6-0.6h5.2c0.4,0,0.6,0.2,0.6,0.6v33.5C148.9,167.9,148.8,168.1,148.4,168.1L148.4,168.1z M142.6,152.6
		c0-2.2-1.7-3.9-3.9-3.9c-2.2,0-4,1.7-4,3.9v5.8c0,2.2,1.7,4,4,4s3.9-1.7,3.9-4V152.6z"/>
	<path class="st0" d="M173.3,168.1h-4.7c-0.4,0-0.6-0.1-0.6-0.4c0-0.4-0.1-0.7-0.4-0.7c-0.2,0-0.3,0.1-0.5,0.2c-1.2,0.7-2.3,1-3.4,1
		h-2.1c-4.3,0-7.8-3-7.8-7.4v-0.3c0-4.5,3.4-7.4,7.8-7.4h5.3c0.4,0,0.6-0.2,0.6-0.6v-0.7c0-2.1-1.8-3.7-4-3.7c-1.3,0-2.7,0.8-4,3.1
		c-0.1,0.2-0.3,0.3-0.4,0.3c-0.2,0-0.4-0.2-0.7-0.3l-4.2-2.2c-0.2-0.1-0.3-0.2-0.3-0.4c0-0.3,0.6-1.4,1.1-2.2
		c1.8-2.6,4.2-4.2,8.5-4.2c6.3,0,10.3,4,10.3,9.7v15.5C173.9,167.9,173.7,168.1,173.3,168.1L173.3,168.1z M167.6,158.4h-5.8
		c-0.8,0-1.5,0.7-1.5,1.5v0.8c0,0.9,0.6,1.6,1.5,1.6h2.1c1.8,0,3.5-1.5,3.7-3.1V158.4L167.6,158.4z"/>
	<path class="st0" d="M192.1,168.6c-1,0-3-0.3-4.7-1c-3.8-1.5-5.8-4.7-5.8-8.7v-9.7c0-0.4-0.2-0.6-0.6-0.6h-2.9
		c-0.4,0-0.6-0.2-0.6-0.5s0.1-1.5,0.1-3l6.3-6.7c0.2-0.2,0.4-0.3,0.7-0.3h2.6c0.4,0,0.6,0.2,0.6,0.6v3.6c0,0.4,0.2,0.6,0.6,0.6h3.6
		c0.4,0,0.6,0.2,0.6,0.6v4.7c0,0.4-0.2,0.6-0.6,0.6h-3.6c-0.4,0-0.6,0.2-0.6,0.6v9.7c0,2,1.4,3.7,4.2,3.9c0.3,0,0.5,0.2,0.5,0.6v4.7
		C192.6,168.5,192.4,168.6,192.1,168.6L192.1,168.6z"/>
	<path class="st0" d="M200.7,140.3c-2,0-3.7-1.7-3.7-3.7c0-2,1.7-3.7,3.7-3.7s3.7,1.7,3.7,3.7S202.7,140.3,200.7,140.3z
		 M203.3,168.1h-5.2c-0.4,0-0.6-0.2-0.6-0.6v-24.1c0-0.4,0.2-0.6,0.6-0.6h5.2c0.4,0,0.6,0.2,0.6,0.6v24.1
		C203.9,167.9,203.7,168.1,203.3,168.1z"/>
	<path class="st0" d="M219.2,168.6c-6.3,0-10.3-4-10.3-9.7v-6.8c0-5.7,4-9.7,10.3-9.7s10.2,4,10.2,9.7v6.8
		C229.4,164.6,225.4,168.6,219.2,168.6z M223.1,152.1c0-2.2-1.7-4-3.9-4s-4,1.8-4,4v6.8c0,2.1,1.7,4,4,4s3.9-1.8,3.9-4V152.1z"/>
	<path class="st0" d="M254.6,168.1h-5.2c-0.4,0-0.6-0.2-0.6-0.6v-15c0-2.2-1.7-3.9-3.9-3.9s-4,1.7-4,3.9v15c0,0.4-0.2,0.6-0.6,0.6
		h-5.2c-0.4,0-0.6-0.2-0.6-0.6v-24.1c0-0.4,0.2-0.6,0.6-0.6h4.7c0.4,0,0.6,0.1,0.6,0.5s0.2,0.6,0.4,0.6c0.2,0,0.2-0.1,0.4-0.1
		c1.2-0.6,2.5-1,3.6-1c6.2,0,10.2,4,10.2,9.7v15C255.1,167.9,255,168.1,254.6,168.1z"/>
</g>
</svg>
