<?xml version="1.0" encoding="UTF-8"?><svg id="Calque_1" xmlns="http://www.w3.org/2000/svg" viewBox="0 0 119.48 243.28"><defs><style>.cls-1{fill:#fff;}</style></defs><path class="cls-1" d="M119.48,123.19c-1.64,2.12-3.07,4.45-4.94,6.33C77.26,166.93,39.94,204.29,2.62,241.66c-.55,.55-1.13,1.08-1.7,1.62-1.57-1.19-.8-2.2-.02-3.28,6.7-9.26,12.55-19.04,17.55-29.32,9.23-18.99,15.36-38.93,18.39-59.85,2.3-15.87,2.75-31.81,1.25-47.72C34.65,66.77,22.38,33.64,1.18,3.89c-.78-1.09-2.11-2.2,0-3.89,2.39,2.52,4.74,5.1,7.21,7.58C43.38,42.65,78.4,77.7,113.35,112.81c2.27,2.28,4.1,5,6.13,7.51v2.88Z"/></svg>