<?xml version="1.0" standalone="no"?>
<!DOCTYPE svg PUBLIC "-//W3C//DTD SVG 20010904//EN"
 "http://www.w3.org/TR/2001/REC-SVG-20010904/DTD/svg10.dtd">
<svg version="1.0" xmlns="http://www.w3.org/2000/svg"
 width="353.000000pt" height="353.000000pt" viewBox="0 0 353.000000 353.000000"
 preserveAspectRatio="xMidYMid meet">
<metadata>
Created by potrace 1.11, written by Peter Selinger 2001-2013
</metadata>
<g transform="translate(0.000000,353.000000) scale(0.100000,-0.100000)"
fill="#000000" stroke="none">
<path d="M715 2794 c-10 -10 -13 -103 -12 -424 0 -226 -4 -415 -9 -419 -8 -8
-67 -31 -244 -96 -41 -15 -88 -33 -105 -40 -16 -7 -95 -36 -175 -65 -80 -30
-152 -59 -160 -67 -13 -12 -11 -17 15 -38 17 -13 34 -24 38 -25 4 0 13 -5 20
-11 7 -6 62 -42 122 -81 61 -39 160 -103 220 -143 95 -62 220 -137 398 -239
52 -30 62 -41 20 -24 -16 6 -53 16 -84 23 l-56 12 -1 -203 c0 -172 2 -205 16
-216 12 -10 109 -13 444 -13 235 0 428 2 428 5 0 3 70 5 155 5 85 0 155 -2
155 -5 0 -3 193 -5 430 -5 337 0 432 3 442 13 10 10 13 103 13 427 0 228 3
415 5 417 3 2 86 37 185 77 202 83 476 196 517 214 15 6 30 17 32 23 2 6 -53
42 -122 79 -70 38 -147 80 -172 93 -25 13 -67 37 -95 52 -204 112 -304 164
-310 158 -3 -2 -19 -42 -35 -89 -24 -65 -30 -74 -26 -43 9 65 19 324 20 487 1
130 -1 150 -16 161 -26 19 -2034 19 -2053 0z m1825 -1698 c0 -2 -8 -10 -17
-17 -16 -13 -17 -12 -4 4 13 16 21 21 21 13z m-70 -69 c0 -2 -10 -12 -22 -23
l-23 -19 19 23 c18 21 26 27 26 19z"/>
</g>
</svg>
